HIERARCHY
ROOT Hips
{
	OFFSET 0.000000 97.167313 0.000000
	CHANNELS 6 Xposition Yposition Zposition Xrotation Yrotation Zrotation
	JOINT Spine
	{
		OFFSET 0.000000 13.784798 0.064400
		CHANNELS 3 Xrotation Yrotation Zrotation
		JOINT Spine1
		{
			OFFSET 0.000000 12.037903 0.404700
			CHANNELS 3 Xrotation Yrotation Zrotation
			JOINT Spine2
			{
				OFFSET 0.000000 17.795601 0.420200
				CHANNELS 3 Xrotation Yrotation Zrotation
				JOINT Neck
				{
					OFFSET 0.000000 39.131302 11.954600
					CHANNELS 3 Xrotation Yrotation Zrotation
					JOINT Head
					{
						OFFSET 0.000000 14.456192 15.627699
						CHANNELS 3 Xrotation Yrotation Zrotation
						JOINT HeadTop_End
						{
							OFFSET 0.000000 15.703506 7.603401
							CHANNELS 3 Xrotation Yrotation Zrotation
							End Site
							{
								OFFSET 0.000000 17.447403 0.000000
							}
						}
					}
				}
				JOINT LeftShoulder
				{
					OFFSET 17.399500 24.608795 1.168800
					CHANNELS 3 Xrotation Yrotation Zrotation
					JOINT LeftArm
					{
						OFFSET 18.980635 5.765305 1.818600
						CHANNELS 3 Xrotation Yrotation Zrotation
						JOINT LeftForeArm
						{
							OFFSET 49.290169 0.000000 0.000000
							CHANNELS 3 Xrotation Yrotation Zrotation
							JOINT LeftHand
							{
								OFFSET 31.562012 0.000000 0.000000
								CHANNELS 3 Xrotation Yrotation Zrotation
								JOINT LeftHandThumb1
								{
									OFFSET 6.133995 -4.388519 7.076070
									CHANNELS 3 Xrotation Yrotation Zrotation
									JOINT LeftHandThumb2
									{
										OFFSET 6.037666 -3.485840 3.485847
										CHANNELS 3 Xrotation Yrotation Zrotation
										JOINT LeftHandThumb3
										{
											OFFSET 6.496506 -3.750763 3.750761
											CHANNELS 3 Xrotation Yrotation Zrotation
											JOINT LeftHandThumb4
											{
												OFFSET 5.616882 -3.242905 3.242910
												CHANNELS 3 Xrotation Yrotation Zrotation
												End Site
												{
													OFFSET -1.254608 7.132141 0.375429
												}
											}
										}
									}
								}
								JOINT LeftHandPinky1
								{
									OFFSET 18.920792 -0.453171 -11.426712
									CHANNELS 3 Xrotation Yrotation Zrotation
									JOINT LeftHandPinky2
									{
										OFFSET 4.919586 0.000000 0.000000
										CHANNELS 3 Xrotation Yrotation Zrotation
										JOINT LeftHandPinky3
										{
											OFFSET 5.233047 0.000000 0.000000
											CHANNELS 3 Xrotation Yrotation Zrotation
											JOINT LeftHandPinky4
											{
												OFFSET 5.571716 0.000000 0.000000
												CHANNELS 3 Xrotation Yrotation Zrotation
												End Site
												{
													OFFSET -3.459808 4.342407 -0.466164
												}
											}
										}
									}
								}
								JOINT LeftHandRing1
								{
									OFFSET 22.726120 -0.094986 -6.500475
									CHANNELS 3 Xrotation Yrotation Zrotation
									JOINT LeftHandRing2
									{
										OFFSET 6.408615 0.000000 0.000000
										CHANNELS 3 Xrotation Yrotation Zrotation
										JOINT LeftHandRing3
										{
											OFFSET 6.150223 0.000000 0.000000
											CHANNELS 3 Xrotation Yrotation Zrotation
											JOINT LeftHandRing4
											{
												OFFSET 6.145386 0.000000 0.000000
												CHANNELS 3 Xrotation Yrotation Zrotation
												End Site
												{
													OFFSET -3.671402 4.923981 -0.202372
												}
											}
										}
									}
								}
								JOINT LeftHandMiddle1
								{
									OFFSET 23.373947 0.000000 0.000001
									CHANNELS 3 Xrotation Yrotation Zrotation
									JOINT LeftHandMiddle2
									{
										OFFSET 6.996567 0.000000 0.000000
										CHANNELS 3 Xrotation Yrotation Zrotation
										JOINT LeftHandMiddle3
										{
											OFFSET 7.015945 0.000000 0.000000
											CHANNELS 3 Xrotation Yrotation Zrotation
											JOINT LeftHandMiddle4
											{
												OFFSET 7.721573 0.000000 0.000000
												CHANNELS 3 Xrotation Yrotation Zrotation
												End Site
												{
													OFFSET -4.651108 6.158463 0.251582
												}
											}
										}
									}
								}
								JOINT LeftHandIndex1
								{
									OFFSET 21.310577 -0.490082 6.209344
									CHANNELS 3 Xrotation Yrotation Zrotation
									JOINT LeftHandIndex2
									{
										OFFSET 7.536453 0.000000 0.000000
										CHANNELS 3 Xrotation Yrotation Zrotation
										JOINT LeftHandIndex3
										{
											OFFSET 7.512344 0.000000 0.000000
											CHANNELS 3 Xrotation Yrotation Zrotation
											JOINT LeftHandIndex4
											{
												OFFSET 10.212402 0.000000 0.000001
												CHANNELS 3 Xrotation Yrotation Zrotation
												End Site
												{
													OFFSET -5.180801 8.690506 1.388433
												}
											}
										}
									}
								}
							}
						}
					}
				}
				JOINT RightShoulder
				{
					OFFSET -17.399500 24.608795 1.168800
					CHANNELS 3 Xrotation Yrotation Zrotation
					JOINT RightArm
					{
						OFFSET -18.980635 5.765305 1.818600
						CHANNELS 3 Xrotation Yrotation Zrotation
						JOINT RightForeArm
						{
							OFFSET -49.290169 0.000000 0.000000
							CHANNELS 3 Xrotation Yrotation Zrotation
							JOINT RightHand
							{
								OFFSET -31.562012 0.000000 0.000000
								CHANNELS 3 Xrotation Yrotation Zrotation
								JOINT RightHandThumb1
								{
									OFFSET -6.133995 -4.388519 7.076070
									CHANNELS 3 Xrotation Yrotation Zrotation
									JOINT RightHandThumb2
									{
										OFFSET -6.037666 -3.485840 3.485847
										CHANNELS 3 Xrotation Yrotation Zrotation
										JOINT RightHandThumb3
										{
											OFFSET -6.496506 -3.750763 3.750761
											CHANNELS 3 Xrotation Yrotation Zrotation
											JOINT RightHandThumb4
											{
												OFFSET -5.616882 -3.242905 3.242910
												CHANNELS 3 Xrotation Yrotation Zrotation
												End Site
												{
													OFFSET 1.254608 7.132141 0.375429
												}
											}
										}
									}
								}
								JOINT RightHandIndex1
								{
									OFFSET -21.310577 -0.490082 6.209344
									CHANNELS 3 Xrotation Yrotation Zrotation
									JOINT RightHandIndex2
									{
										OFFSET -7.536453 0.000000 0.000000
										CHANNELS 3 Xrotation Yrotation Zrotation
										JOINT RightHandIndex3
										{
											OFFSET -7.512344 0.000000 0.000000
											CHANNELS 3 Xrotation Yrotation Zrotation
											JOINT RightHandIndex4
											{
												OFFSET -10.212402 0.000000 0.000001
												CHANNELS 3 Xrotation Yrotation Zrotation
												End Site
												{
													OFFSET 5.180801 8.690506 1.388433
												}
											}
										}
									}
								}
								JOINT RightHandMiddle1
								{
									OFFSET -23.373947 0.000000 0.000001
									CHANNELS 3 Xrotation Yrotation Zrotation
									JOINT RightHandMiddle2
									{
										OFFSET -6.996567 0.000000 0.000000
										CHANNELS 3 Xrotation Yrotation Zrotation
										JOINT RightHandMiddle3
										{
											OFFSET -7.015945 0.000000 0.000000
											CHANNELS 3 Xrotation Yrotation Zrotation
											JOINT RightHandMiddle4
											{
												OFFSET -7.721573 0.000000 0.000000
												CHANNELS 3 Xrotation Yrotation Zrotation
												End Site
												{
													OFFSET 4.651108 6.158463 0.251582
												}
											}
										}
									}
								}
								JOINT RightHandRing1
								{
									OFFSET -22.726120 -0.094986 -6.500475
									CHANNELS 3 Xrotation Yrotation Zrotation
									JOINT RightHandRing2
									{
										OFFSET -6.408615 0.000000 0.000000
										CHANNELS 3 Xrotation Yrotation Zrotation
										JOINT RightHandRing3
										{
											OFFSET -6.150223 0.000000 0.000000
											CHANNELS 3 Xrotation Yrotation Zrotation
											JOINT RightHandRing4
											{
												OFFSET -6.145386 0.000000 0.000000
												CHANNELS 3 Xrotation Yrotation Zrotation
												End Site
												{
													OFFSET 3.671402 4.923981 -0.202372
												}
											}
										}
									}
								}
								JOINT RightHandPinky1
								{
									OFFSET -18.920792 -0.453171 -11.426712
									CHANNELS 3 Xrotation Yrotation Zrotation
									JOINT RightHandPinky2
									{
										OFFSET -4.919586 0.000000 0.000000
										CHANNELS 3 Xrotation Yrotation Zrotation
										JOINT RightHandPinky3
										{
											OFFSET -5.233047 0.000000 0.000000
											CHANNELS 3 Xrotation Yrotation Zrotation
											JOINT RightHandPinky4
											{
												OFFSET -5.571716 0.000000 0.000000
												CHANNELS 3 Xrotation Yrotation Zrotation
												End Site
												{
													OFFSET 3.459808 4.342407 -0.466164
												}
											}
										}
									}
								}
							}
						}
					}
				}
			}
		}
	}
	JOINT LeftUpLeg
	{
		OFFSET 19.899099 -7.885101 -3.429500
		CHANNELS 3 Xrotation Yrotation Zrotation
		JOINT LeftLeg
		{
			OFFSET 1.745560 -36.997807 10.304700
			CHANNELS 3 Xrotation Yrotation Zrotation
			JOINT LeftFoot
			{
				OFFSET -1.745558 -29.803308 -13.615400
				CHANNELS 3 Xrotation Yrotation Zrotation
				JOINT LeftToeBase
				{
					OFFSET 1.181900 -18.539904 15.226099
					CHANNELS 3 Xrotation Yrotation Zrotation
					JOINT LeftToe_End
					{
						OFFSET -0.863701 1.402801 16.534700
						CHANNELS 3 Xrotation Yrotation Zrotation
						End Site
						{
							OFFSET 0.000000 16.616566 0.000000
						}
					}
				}
			}
		}
	}
	JOINT RightUpLeg
	{
		OFFSET -19.899099 -7.885101 -3.429500
		CHANNELS 3 Xrotation Yrotation Zrotation
		JOINT RightLeg
		{
			OFFSET -1.745560 -36.997807 10.304700
			CHANNELS 3 Xrotation Yrotation Zrotation
			JOINT RightFoot
			{
				OFFSET 1.745558 -29.803308 -13.615400
				CHANNELS 3 Xrotation Yrotation Zrotation
				JOINT RightToeBase
				{
					OFFSET -1.181900 -18.539904 15.226099
					CHANNELS 3 Xrotation Yrotation Zrotation
					JOINT RightToe_End
					{
						OFFSET 0.863701 1.402801 16.534700
						CHANNELS 3 Xrotation Yrotation Zrotation
						End Site
						{
							OFFSET 0.000000 16.616566 0.000000
						}
					}
				}
			}
		}
	}
}
MOTION
Frames: 4
Frame Time: 0.033333
-0.146485 95.243332 2.296465 0.511374 -3.422338 -0.830607 2.863421 1.566752 -0.066673 0.638729 0.421305 -0.226907 0.637890 0.422437 -0.230483 -0.762391 0.082487 0.863656 -2.077854 4.219531 0.760380 -0.000000 0.000000 -0.000000 0.791098 3.017393 -13.264254 10.599753 -29.495690 -54.344431 0.000005 -25.968176 0.000002 5.955388 -2.986002 -11.188996 11.315834 8.053282 10.465135 15.528618 8.540909 7.662989 -1.047510 11.308306 6.443418 -0.000001 0.000001 0.000004 5.537065 8.191236 -88.520741 4.496823 5.692721 -76.594991 4.496811 5.692714 -76.594902 -0.000000 0.000000 -0.000006 4.801019 8.096779 -81.253126 5.938702 5.850401 -90.859794 6.143556 5.843769 -92.870219 -0.000003 -0.000003 0.000005 4.533979 8.038836 -78.578949 5.443196 5.836871 -85.995784 5.647848 5.847533 -88.006168 0.000001 -0.000003 0.000008 6.963270 9.295152 -64.830120 4.495886 5.692494 -76.585525 2.977846 5.099136 -60.547073 -0.000005 0.000001 0.000001 0.556638 3.904650 17.744603 19.663457 6.612824 54.317165 0.000012 44.901537 -0.000000 14.305987 -2.494943 6.273324 -63.695838 -37.308665 -0.596645 -2.524417 0.594088 -26.687036 0.348968 -0.711030 -0.835678 -0.000000 -0.000001 0.000001 1.680223 -5.933139 39.311683 2.973229 -4.342702 68.781234 2.973212 -4.342689 68.781337 -0.000004 -0.000002 0.000003 3.234219 -7.217014 47.897463 4.285814 -4.642371 85.421488 4.448951 -4.652526 87.434665 0.000002 -0.000000 -0.000004 1.888299 -5.999044 56.603635 2.948623 -4.333086 68.455974 3.101122 -4.390055 70.461072 -0.000003 0.000003 -0.000003 3.325674 -6.775428 64.519647 1.173369 -3.092602 41.546760 1.173332 -3.092558 41.546074 0.000002 0.000001 -0.000001 1.148138 14.441636 -3.597988 8.464003 -6.075602 3.576531 -9.070660 -0.600213 0.915026 -0.425215 -0.004074 0.644447 0.000000 -0.000000 0.000000 2.894701 -12.521959 2.478253 5.467552 -4.228794 -2.697852 -8.766260 -0.875387 3.055809 -0.245659 0.000012 -0.000000 -0.000000 -0.000000 -0.000000 
-0.148928 95.241051 2.288791 0.480132 -3.459253 -0.856651 2.876910 1.598693 -0.098044 0.643197 0.431976 -0.222603 0.642386 0.432945 -0.226262 -0.751105 0.079144 0.885924 -2.011940 4.223423 0.808436 0.000000 -0.000000 -0.000000 0.791007 3.020380 -13.260923 10.909304 -29.765999 -54.102584 0.000000 -26.230196 -0.000029 5.710273 -2.923609 -11.189785 11.330732 8.086323 10.461375 15.592671 8.559815 7.613183 -1.062865 11.309478 6.467827 -0.000002 0.000000 0.000003 5.536434 8.191226 -88.520693 4.495865 5.692487 -76.585320 4.495866 5.692481 -76.585279 -0.000000 -0.000000 -0.000004 4.800406 8.096688 -81.253112 5.935739 5.850438 -90.830711 6.140590 5.843915 -92.841102 -0.000000 -0.000003 0.000007 4.528738 8.037589 -78.532292 5.439448 5.836637 -85.958942 5.644103 5.847389 -87.969367 0.000001 -0.000001 0.000001 6.972536 9.297853 -64.852100 4.497787 5.692941 -76.604615 2.979504 5.100072 -60.565876 0.000001 0.000005 0.000000 0.555170 3.925807 17.738186 19.660194 6.870191 53.772846 0.000007 44.735437 0.000000 15.236875 -1.846935 8.021302 -63.662158 -37.085530 0.060791 -2.338514 0.697128 -26.615886 0.466337 -0.689553 -0.576564 -0.000000 0.000000 0.000002 1.033862 -5.189302 32.174501 2.530266 -4.144086 62.800202 2.539966 -4.149019 62.934517 -0.000003 -0.000003 -0.000002 3.025913 -7.507219 40.023529 3.987284 -4.608843 81.720918 4.150498 -4.629585 83.747354 -0.000002 0.000001 -0.000006 1.786572 -5.910342 49.277971 2.373634 -4.059978 60.610812 2.477096 -4.116383 62.061995 -0.000002 0.000001 -0.000005 3.301953 -6.884472 58.117711 0.742416 -2.524660 32.769417 0.668806 -2.406563 31.058113 0.000001 -0.000004 0.000004 1.160263 14.439817 -3.570154 8.509051 -6.034675 3.594246 -9.106813 -0.595845 0.895033 -0.425215 -0.004073 0.644447 0.000000 0.000000 0.000000 2.921329 -12.523722 2.513556 5.458060 -4.191457 -2.706039 -8.747915 -0.871788 3.044810 -0.245658 0.000010 -0.000000 -0.000000 -0.000002 0.000000 
-0.138976 95.252174 2.271486 0.434377 -3.606298 -0.855131 2.894599 1.621272 -0.169965 0.644118 0.441787 -0.208704 0.643407 0.442439 -0.212376 -0.696567 0.081638 0.920685 -1.892571 4.290184 0.835805 0.000000 -0.000000 -0.000000 0.792029 3.020929 -13.278737 11.286059 -29.997460 -53.848054 0.000007 -26.527357 -0.000009 5.384754 -2.840790 -11.190502 11.333309 8.092010 10.460700 15.572471 8.545175 7.634520 -1.071445 11.310143 6.481426 -0.000001 0.000001 0.000001 5.535723 8.191196 -88.520693 4.494813 5.692256 -76.574624 4.494811 5.692238 -76.574555 -0.000001 -0.000001 -0.000006 4.799680 8.096579 -81.253105 5.934784 5.850458 -90.821025 6.139611 5.843959 -92.831396 -0.000003 0.000001 -0.000002 4.524190 8.036505 -78.493497 5.437318 5.836456 -85.937946 5.641945 5.847326 -87.948337 0.000003 -0.000002 0.000004 6.992326 9.307837 -64.842121 4.497291 5.692817 -76.599813 2.979008 5.099795 -60.560282 0.000000 -0.000000 -0.000001 0.554758 3.934799 17.685445 19.798367 7.898821 52.587932 -0.000009 44.930309 0.000022 17.977944 -0.461335 11.235870 -57.270166 -40.835300 2.353399 -0.659008 1.648826 -27.083138 0.408615 -0.700864 -0.704883 -0.000001 -0.000003 -0.000001 -0.237244 -2.389431 20.867700 1.491998 -3.418012 47.153232 1.509656 -3.434262 47.448986 -0.000001 -0.000001 0.000001 2.346598 -7.887043 26.965850 2.733530 -4.242117 65.579809 2.886175 -4.307987 67.627199 0.000001 0.000001 -0.000004 2.055332 -6.551742 35.925685 1.125445 -3.037735 40.650404 1.174172 -3.093473 41.561442 -0.000000 -0.000001 -0.000007 0.645996 -4.880754 47.559178 0.323214 -1.706353 21.450040 0.225798 -1.433945 17.895767 -0.000001 -0.000001 0.000004 1.269773 14.434958 -3.576485 8.436943 -5.901929 3.565402 -9.109615 -0.582855 0.886950 -0.425215 -0.004074 0.644447 0.000000 -0.000000 0.000000 2.898673 -12.527077 2.518279 5.471030 -4.060275 -2.751955 -8.696377 -0.856098 3.044669 -0.245658 0.000010 -0.000000 -0.000000 0.000002 -0.000000 
-0.129128 95.265381 2.251546 0.380256 -3.783752 -0.853404 2.900454 1.640510 -0.240656 0.643173 0.450366 -0.197460 0.642546 0.450732 -0.201131 -0.614884 0.084484 0.962884 -1.730112 4.379778 0.872571 -0.000000 0.000000 0.000000 0.792046 3.013776 -13.283055 11.613331 -30.172303 -53.640447 -0.000001 -26.790572 -0.000019 5.134598 -2.777102 -11.190652 11.328870 8.082090 10.461781 15.564963 8.539584 7.624026 -1.080946 11.310885 6.496531 -0.000001 -0.000002 -0.000001 5.534797 8.191186 -88.520652 4.493511 5.691916 -76.561448 4.493494 5.691919 -76.561366 0.000002 0.000000 -0.000002 4.798773 8.096441 -81.253044 5.931363 5.850496 -90.787537 6.136186 5.844126 -92.797935 -0.000004 -0.000000 0.000005 4.519013 8.035286 -78.450385 5.432128 5.836090 -85.886869 5.636743 5.847141 -87.897233 0.000000 -0.000004 0.000006 7.002214 9.312319 -64.843876 4.494969 5.692269 -76.576311 2.976899 5.098603 -60.536438 -0.000001 0.000002 -0.000001 0.555288 3.934164 17.571505 19.722325 8.805988 51.340667 0.000010 45.571514 0.000005 21.889310 1.225006 13.719302 -50.244019 -42.340930 6.286778 -1.524230 1.257908 -28.554560 0.489684 -0.686032 -0.526057 0.000002 0.000000 -0.000000 -0.168916 -1.773190 12.217343 0.952294 -2.823875 37.265072 0.975796 -2.854433 37.739360 -0.000000 -0.000001 0.000001 1.573373 -7.717967 17.798460 1.908574 -3.761024 53.799727 2.046107 -3.857701 55.869643 -0.000001 -0.000002 -0.000009 1.550807 -6.361076 26.714521 0.578887 -2.250655 28.845607 0.591852 -2.274002 29.173582 0.000001 0.000002 0.000004 0.066062 -3.937278 38.621639 0.137450 -1.124267 13.939964 0.050258 -0.683077 8.415800 0.000003 -0.000002 0.000005 1.401071 14.428414 -3.579751 8.349514 -5.741818 3.524964 -9.113112 -0.567261 0.878246 -0.425215 -0.004074 0.644447 -0.000000 -0.000000 0.000000 2.870965 -12.531719 2.532183 5.487088 -3.902156 -2.820758 -8.635573 -0.837976 3.050044 -0.245659 0.000012 -0.000000 -0.000000 -0.000000 -0.000000 
